<svg xmlns="http://www.w3.org/2000/svg" xmlns:xlink="http://www.w3.org/1999/xlink" width="500" zoomAndPan="magnify" viewBox="0 0 375 374.999991" height="500" preserveAspectRatio="xMidYMid meet" version="1.0"><defs><g/><clipPath id="2ad09bace6"><path d="M 233.597656 202.136719 L 253.199219 202.136719 L 253.199219 221.738281 L 233.597656 221.738281 Z M 233.597656 202.136719 " clip-rule="nonzero"/></clipPath><clipPath id="0923659618"><path d="M 243.398438 202.136719 C 237.984375 202.136719 233.597656 206.523438 233.597656 211.9375 C 233.597656 217.351562 237.984375 221.738281 243.398438 221.738281 C 248.8125 221.738281 253.199219 217.351562 253.199219 211.9375 C 253.199219 206.523438 248.8125 202.136719 243.398438 202.136719 Z M 243.398438 202.136719 " clip-rule="nonzero"/></clipPath></defs><rect x="-37.5" width="450" fill="#ffffff" y="-37.499999" height="449.999989" fill-opacity="1"/><rect x="-37.5" width="450" fill="#ffffff" y="-37.499999" height="449.999989" fill-opacity="1"/><g clip-path="url(#2ad09bace6)"><g clip-path="url(#0923659618)"><path fill="#f43f5e" d="M 233.597656 202.136719 L 253.199219 202.136719 L 253.199219 221.738281 L 233.597656 221.738281 Z M 233.597656 202.136719 " fill-opacity="1" fill-rule="nonzero"/></g></g><g fill="#000000" fill-opacity="1"><g transform="translate(118.775226, 217.124986)"><g><path d="M 6.59375 0 L 6.59375 -56.4375 L 26.0625 -56.4375 L 26.0625 -50.484375 L 26.296875 -50.484375 C 31.347656 -55.546875 36.734375 -58.078125 42.453125 -58.078125 C 46.566406 -58.078125 50.421875 -57.234375 54.015625 -55.546875 C 57.609375 -53.859375 60.320312 -51.253906 62.15625 -47.734375 C 67.875 -54.628906 74.101562 -58.078125 80.84375 -58.078125 C 86.863281 -58.078125 92.035156 -56.390625 96.359375 -53.015625 C 100.679688 -49.640625 102.84375 -44.363281 102.84375 -37.1875 L 102.84375 0 L 83.375 0 L 83.375 -31.90625 C 83.375 -34.90625 82.550781 -37.410156 80.90625 -39.421875 C 79.257812 -41.441406 76.785156 -42.453125 73.484375 -42.453125 C 70.617188 -42.453125 68.4375 -41.59375 66.9375 -39.875 C 65.4375 -38.15625 64.609375 -36.082031 64.453125 -33.65625 L 64.453125 0 L 44.984375 0 L 44.984375 -31.90625 C 44.984375 -34.90625 44.160156 -37.410156 42.515625 -39.421875 C 40.867188 -41.441406 38.394531 -42.453125 35.09375 -42.453125 C 32.082031 -42.453125 29.820312 -41.515625 28.3125 -39.640625 C 26.8125 -37.773438 26.0625 -35.5625 26.0625 -33 L 26.0625 0 Z M 6.59375 0 "/></g></g></g></svg>