<svg width="165" height="78" viewBox="0 0 165 78" fill="none" xmlns="http://www.w3.org/2000/svg">
    <style>
        .color-changeable {
            fill: black;
        }
        @media (prefers-color-scheme: dark) {
            .color-changeable { fill: white; }
        }
    </style>
    <path class="color-changeable" d="M0 77.4375V2.1875H25.9583V10.125H26.2708C33.0052 3.375 40.1875 0 47.8125 0C53.2969 0 58.4375 1.125 63.2292 3.375C68.0208 5.625 71.6354 9.09896 74.0833 13.7917C81.7083 4.59896 90.0104 0 99 0C107.026 0 113.922 2.25 119.688 6.75C125.448 11.25 128.333 18.2865 128.333 27.8542V77.4375H102.375V34.8958C102.375 30.8958 101.276 27.5573 99.0833 24.875C96.8854 22.1823 93.5886 20.8333 89.1875 20.8333C85.3646 20.8333 82.4583 21.9792 80.4583 24.2708C78.4583 26.5625 77.3542 29.3281 77.1458 32.5625V77.4375H51.1875V34.8958C51.1875 30.8958 50.0885 27.5573 47.8958 24.875C45.6979 22.1823 42.401 20.8333 38 20.8333C33.9844 20.8333 30.9688 22.0833 28.9583 24.5833C26.9583 27.0729 25.9583 30.0208 25.9583 33.4375V77.4375H0Z" fill="#FF5733"/>
    <g mask="url(#mask0_1_14)">
        <path d="M138 51H164.135V77.1354H138V51Z" fill="#F43F5E"/>
    </g>
    <mask id="mask0_1_14" style="mask-type:alpha" maskUnits="userSpaceOnUse" x="138" y="51" width="27" height="27">
        <path d="M151.068 51C143.849 51 138 56.849 138 64.0677C138 71.2865 143.849 77.1354 151.068 77.1354C158.286 77.1354 164.135 71.2865 164.135 64.0677C164.135 56.849 158.286 51 151.068 51Z" fill="#F43F5E"/>
    </mask>
</svg>
